# xmcd
#
# Track frame offsets:
#	150
#	17439
#	27532
#	38286
#	62741
#	79209
#	93075
#	109668
#	130671
#
# Disc length: 1911 seconds
#
# Revision: 0
# Processed by: cddbd v1.5.2PL0 Copyright (c) Steve Scherf et al.
# Submitted via: EasyCDDAExtractor 10.0.6.1
#
DISCID=5f077509
DTITLE=Various Artist - HMG Bluegrass Vol.10
DYEAR=1900
DGENRE=Bluegrass
TTITLE0=Marty Stuart - Somebody Saved Me
TTITLE1=Lawrence Bishop - Three Dollar Baby
TTITLE2=Haddix Family - I Can't Make Without You
TTITLE3=Mountain Heir - Planting Flowers
TTITLE4=Lori Willcuts - Beacon Of Light
TTITLE5=Smoky Mountain Boys - Back Then
TTITLE6=Mama Blu-Grace - Papa
TTITLE7=Travis Wetzel - Trail Of Tears
TTITLE8=Herbert Busby - I Won't Have To Cross Jordan Alone
EXTD=
EXTT0=
EXTT1=
EXTT2=
EXTT3=
EXTT4=
EXTT5=
EXTT6=
EXTT7=
EXTT8=
PLAYORDER=
